<svg width="50" height="50" viewBox="0 0 50 50" fill="none" xmlns="http://www.w3.org/2000/svg">
<path d="M24.9999 49.0679C38.2923 49.0679 49.0678 38.2923 49.0678 25C49.0678 11.7077 38.2923 0.932129 24.9999 0.932129C11.7076 0.932129 0.932068 11.7077 0.932068 25C0.932068 38.2923 11.7076 49.0679 24.9999 49.0679Z" fill="#4F4F4F"/>
<path d="M37.5 12.5H12.5C10.7811 12.5 9.375 13.9068 9.375 15.625V34.375C9.375 36.0932 10.7811 37.5 12.5 37.5H37.5C39.2182 37.5 40.625 36.0932 40.625 34.375V15.625C40.625 13.9068 39.2182 12.5 37.5 12.5ZM37.5 34.375H34.375V20.6253L25 26.5625L15.625 20.6253V34.375H12.5V15.625H14.3753L25 22.1878L35.6247 15.625H37.5V34.375Z" fill="white"/>
</svg>
