<svg width="50" height="49" viewBox="0 0 50 49" fill="none" xmlns="http://www.w3.org/2000/svg">
<path d="M25 0C11.1938 0 0 11.1938 0 25C0 36.0474 7.1625 45.4163 17.0975 48.7213C18.3472 48.9502 18.8034 48.1781 18.8034 47.5189C18.8034 46.9238 18.7805 44.9524 18.7683 42.865C11.8164 44.3756 10.347 39.917 10.347 39.917C9.20869 37.03 7.57139 36.261 7.57139 36.261C5.29937 34.7107 7.74375 34.7412 7.74375 34.7412C10.2538 34.9151 11.5753 37.3169 11.5753 37.3169C13.8062 41.1377 17.4286 40.033 18.8507 39.3921C19.0779 37.7808 19.7249 36.676 20.4376 36.0535C14.888 35.4218 9.05 33.2764 9.05 23.6969C9.05 20.9655 10.025 18.7378 11.6211 16.9876C11.3663 16.3528 10.5057 13.8092 11.8683 10.3684C11.8683 10.3684 13.9648 9.69697 18.7438 12.9318C20.7366 12.3749 22.8744 12.1002 25 12.0911C27.124 12.1002 29.2632 12.3779 31.2591 12.9349C36.0291 9.69697 38.1287 10.3714 38.1287 10.3714C39.4958 13.8153 38.6353 16.3559 38.3789 16.9876C39.9811 18.7378 40.9485 20.9656 40.9485 23.6969C40.9485 33.3008 35.1013 35.4156 29.5319 36.0352C30.4322 36.8103 31.2287 38.3301 31.2287 40.6616C31.2287 44.0033 31.1951 46.698 31.1951 47.522C31.1951 48.1873 31.6498 48.9654 32.9163 48.7213C42.8437 45.4102 50 36.0413 50 25C50 11.1938 38.8062 0 25 0Z" fill="#EB5757"/>
</svg>
