<svg width="50" height="50" viewBox="0 0 50 50" fill="none" xmlns="http://www.w3.org/2000/svg">
<path d="M25.001 0C11.1933 0 0 11.1954 0 25.001C0 38.8087 11.1933 50 25.001 50C38.8087 50 50 38.8087 50 25.001C50 11.1954 38.8077 0 25.001 0ZM37.5944 19.9602C37.6076 20.2303 37.6127 20.5013 37.6127 20.7755C37.6127 29.1017 31.2754 38.7011 19.6871 38.7011C16.1296 38.7011 12.8168 37.6584 10.0288 35.8715C10.5223 35.9294 11.0228 35.9588 11.5314 35.9588C14.4838 35.9588 17.2007 34.9517 19.3561 33.2623C16.5997 33.2105 14.2737 31.3881 13.4716 28.8854C13.8554 28.9606 14.2503 28.9981 14.6564 28.9981C15.2311 28.9981 15.7874 28.923 16.3164 28.7778C13.433 28.1991 11.2614 25.6508 11.2614 22.6009C11.2614 22.5735 11.2614 22.5471 11.2624 22.5197C12.1112 22.9918 13.0828 23.2751 14.1163 23.3086C12.4249 22.1765 11.3132 20.2506 11.3132 18.0637C11.3132 16.9093 11.6238 15.826 12.166 14.896C15.2737 18.7074 19.9165 21.2161 25.1533 21.478C25.0457 21.0181 24.9899 20.5359 24.9899 20.0424C24.9899 16.5641 27.8103 13.7427 31.2906 13.7427C33.1029 13.7427 34.7395 14.5082 35.8888 15.7316C37.3244 15.4504 38.6726 14.9245 39.8899 14.2026C39.4179 15.6748 38.4198 16.9093 37.1183 17.688C38.3945 17.5357 39.6087 17.1966 40.7377 16.6961C39.895 17.9622 38.8259 19.0718 37.5944 19.9602Z" fill="#4F4F4F"/>
</svg>
